{"title":"Proper Patola 2014 Punjabi DVD SCR RIP GOPI SAHI PDR","uid":11606118,"size":734448205,"categoryP":"video","categoryS":"movies","magnet":"?xt=urn:btih:66d035b8be6f273ee9f641b7c7a8edebe22d3b65&amp;dn=Proper+Patola+2014+Punjabi+DVD+SCR+RIP+GOPI+SAHI+PDR&amp;tr=udp%3A%2F%2Ftracker.openbittorrent.com%3A80&amp;tr=udp%3A%2F%2Fopen.demonii.com%3A1337&amp;tr=udp%3A%2F%2Ftracker.coppersurfer.tk%3A6969&amp;tr=udp%3A%2F%2Fexodus.desync.com%3A6969","seeders":3,"leechers":1,"uploader":"jatt13","files":1,"time":1417402791,"description":"General\nUnique ID                      : 193511211683393735213297458950946435764 (0x9194E759E7543C4F98392F4F570032B4)\nComplete name                  : D:Proper Patola 2012 Punjabi DVD SCR RIP GOPI SAHI PDR.mkv\nFormat                         : Matroska\nFormat version                 : Version 4 / Version 2\nFile size                      : 700 MiB\nDuration                       : 1h 47mn\nOverall bit rate               : 907 Kbps\nMovie name                     : GOPI SAHI\nEncoded date                   : UTC 2014-12-01 15:16:26\nWriting application            : mkvmerge v6.5.0 ('Isn't she lovely') built on Oct 20 2013 12:50:05\nWriting library                : libebml v1.3.0 + libmatroska v1.4.1\n\nVideo\nID                             : 1\nFormat                         : AVC\nFormat/Info                    : Advanced Video Codec\nFormat profile                 : &lt;a class=&quot;__cf_email__&quot; href=&quot;/cdn-cgi/l/email-protection&quot; data-cfemail=&quot;531e323a3d131f607d62&quot;&gt;[email&amp;#160;protected]&lt;/a&gt;&lt;script cf-hash='f9e31' type=&quot;text/javascript&quot;&gt;\n/* &lt;![CDATA[ */!function(){try{var t=&quot;currentScript&quot;in document?document.currentScript:function(){for(var t=document.getElementsByTagName(&quot;script&quot;),e=t.length;e--;)if(t[e].getAttribute(&quot;cf-hash&quot;))return t[e]}();if(t&amp;&amp;t.previousSibling){var e,r,n,i,c=t.previousSibling,a=c.getAttribute(&quot;data-cfemail&quot;);if(a){for(e=&quot;&quot;,r=parseInt(a.substr(0,2),16),n=2;a.length-n;n+=2)i=parseInt(a.substr(n,2),16)^r,e+=String.fromCharCode(i);e=document.createTextNode(e),c.parentNode.replaceChild(e,c)}}}catch(u){}}();/* ]]&gt; */&lt;/script&gt;\nFormat settings, CABAC         : Yes\nFormat settings, ReFrames      : 3 frames\nCodec ID                       : V_MPEG4/ISO/AVC\nDuration                       : 1h 47mn\nBit rate                       : 824 Kbps\nWidth                          : 640 pixels\nHeight                         : 272 pixels\nDisplay aspect ratio           : 2.35:1\nFrame rate mode                : Constant\nFrame rate                     : 25.000 fps\nColor space                    : YUV\nChroma subsampling             : 4:2:0\nBit depth                      : 8 bits\nScan type                      : Progressive\nBits/(Pixel*Frame)             : 0.189\nStream size                    : 625 MiB (89%)\nTitle                          : GOPI SAHI\nWriting library                : x264 core 142 r2431 ac76440\nLanguage                       : Panjabi\nDefault                        : Yes\nForced                         : No\nColor primaries                : BT.601 NTSC\nTransfer characteristics       : BT.601\nMatrix coefficients            : BT.601\n\nAudio\nID                             : 2\nFormat                         : MPEG Audio\nFormat version                 : Version 1\nFormat profile                 : Layer 3\nMode                           : Joint stereo\nMode extension                 : MS Stereo\nCodec ID                       : A_MPEG/L3\nCodec ID/Hint                  : MP3\nDuration                       : 1h 47mn\nBit rate mode                  : Constant\nBit rate                       : 80.0 Kbps\nChannel(s)                     : 2 channels\nSampling rate                  : 32.0 KHz\nCompression mode               : Lossy\nStream size                    : 61.8 MiB (9%)\nTitle                          : GOPI SAHI\nWriting library                : LAME3.99r\nEncoding settings              : -m j -V 4 -q 2 -lowpass 13.5 -b 80\nLanguage                       : Panjabi\nDefault                        : Yes\nForced                         : No\n[IMG]http://i.imgur.com/WeOZ32f.jpg[/IMG]\n[IMG]http://i.imgur.com/5hTnLzN.jpg[/IMG]\n[IMG]http://i.imgur.com/HBzR5AR.jpg[/IMG]\n[IMG]http://i.imgur.com/k0G1fot.jpg[/IMG]","torrent":{"xt":"urn:btih:66d035b8be6f273ee9f641b7c7a8edebe22d3b65","amp;dn":"Proper+Patola+2014+Punjabi+DVD+SCR+RIP+GOPI+SAHI+PDR","amp;tr":["udp%3A%2F%2Ftracker.openbittorrent.com%3A80","udp%3A%2F%2Fopen.demonii.com%3A1337","udp%3A%2F%2Ftracker.coppersurfer.tk%3A6969","udp%3A%2F%2Fexodus.desync.com%3A6969"],"infoHash":"66d035b8be6f273ee9f641b7c7a8edebe22d3b65","infoHashBuffer":{"type":"Buffer","data":[102,208,53,184,190,111,39,62,233,246,65,183,199,168,237,235,226,45,59,101]},"announce":[],"urlList":[]}}